<svg version="1" xmlns="http://www.w3.org/2000/svg" width="682.667" height="682.667" viewBox="0 0 512 512"><path d="M84 256v175.1l90.3-.4c49.6-.2 91.3-.6 92.7-.9 1.4-.4 5.9-1.2 10-1.8 4.1-.6 11.6-2 16.5-3.2 5-1.2 9.2-2.2 9.5-2.3 7.4-1.4 30.4-11.2 43.8-18.7 16-8.9 35.3-25.7 47.1-41 4.8-6.1 14-20.9 16.8-26.8 6.3-13.3 12.4-31.5 13.8-41.7.3-2.1.8-4.3 1-5 1.2-3.5 2-17.8 2-33.8 0-20.2-.9-30.6-3.7-41-.5-2.2-1.2-5.1-1.5-6.5-1-5.7-7.6-23.7-11.6-31.8-22.6-45-61.8-75.1-115.4-88.6-23.7-6-23-5.9-121-6.3L84 80.9V256zm173-118.6c15 2.8 19.9 4 26.7 6.2 54.8 18.3 83.1 64.5 77.9 127.2-.4 4.5-.9 8.8-1.1 9.5-.2.6-.6 2.4-.9 3.8-1.3 7.7-5.3 19.6-9.8 28.5-11.8 23.8-28.8 39.9-53.9 51-11.6 5.2-17.7 7-30.4 9.4-2.7.5-6.3 1.2-8 1.6-1.6.4-26.7.9-55.7 1.1l-52.8.5V135.8l52.3.5c28.7.2 53.8.7 55.7 1.1z"/></svg>