<?xml version="1.0" standalone="no"?>
<!DOCTYPE svg PUBLIC "-//W3C//DTD SVG 20010904//EN"
 "http://www.w3.org/TR/2001/REC-SVG-20010904/DTD/svg10.dtd">
<svg version="1.0" xmlns="http://www.w3.org/2000/svg"
 width="512.000000pt" height="512.000000pt" viewBox="0 0 512.000000 512.000000"
 preserveAspectRatio="xMidYMid meet">
<metadata>
Created by potrace 1.11, written by Peter Selinger 2001-2013
</metadata>
<g transform="translate(0.000000,512.000000) scale(0.100000,-0.100000)"
fill="#000000" stroke="none">
<path d="M840 2560 l0 -1751 903 4 c496 2 913 6 927 9 14 4 59 12 100 18 41 6
116 20 165 32 50 12 92 22 95 23 74 14 304 112 438 187 160 89 353 257 471
410 48 61 140 209 168 268 63 133 124 315 138 417 3 21 8 43 10 50 12 35 20
178 20 338 0 202 -9 306 -37 410 -5 22 -12 51 -15 65 -10 57 -76 237 -116 318
-226 450 -618 751 -1154 886 -237 60 -230 59 -1210 63 l-903 4 0 -1751z m1730
1186 c150 -28 199 -40 267 -62 548 -183 831 -645 779 -1272 -4 -45 -9 -88 -11
-95 -2 -6 -6 -24 -9 -38 -13 -77 -53 -196 -98 -285 -118 -238 -288 -399 -539
-510 -116 -52 -177 -70 -304 -94 -27 -5 -63 -12 -80 -16 -16 -4 -267 -9 -557
-11 l-528 -5 0 1202 0 1202 523 -5 c287 -2 538 -7 557 -11z"/>
</g>
</svg>
