<svg xmlns="http://www.w3.org/2000/svg" width="128px" height="128px" viewBox="0 0 128 128">
  <style>
    @media (prefers-color-scheme: light) {
      .path {
         fill: rgb(42, 42, 42);
      }
    }

    @media (prefers-color-scheme: dark) {
      .path {
         fill: rgb(255, 255, 255);
      }
    }
  </style>
  <path class="path" d="M 14.79 100.98 Q 11.03 100.98 7.98 99.14 Q 4.94 97.31 3.11 94.25 Q 1.28 91.19 1.28 87.47 L 1.28 57.71 Q 1.28 54.04 3.09 50.98 Q 4.9 47.92 7.96 46.06 Q 11.01 44.2 14.79 44.2 L 46.22 44.2 L 46.22 25.6 L 59.04 25.6 L 59.04 100.98 L 14.79 100.98 Z M 15.38 88.16 L 45.04 88.16 Q 45.52 88.16 45.87 87.81 Q 46.22 87.46 46.22 86.98 L 46.22 58.2 Q 46.22 57.72 45.87 57.37 Q 45.52 57.02 45.04 57.02 L 15.38 57.02 Q 14.9 57.02 14.55 57.37 Q 14.2 57.72 14.2 58.2 L 14.2 86.98 Q 14.2 87.46 14.55 87.81 Q 14.9 88.16 15.38 88.16 Z M 82.93 100.98 Q 79.22 100.98 76.13 99.12 Q 73.04 97.26 71.23 94.2 Q 69.42 91.14 69.42 87.47 L 69.42 66.13 L 114.25 66.13 L 114.25 58.2 Q 114.25 57.72 113.91 57.37 Q 113.56 57.02 113.08 57.02 L 69.42 57.02 L 69.42 44.2 L 113.57 44.2 Q 117.33 44.2 120.38 46.03 Q 123.42 47.87 125.25 50.93 Q 127.08 53.99 127.08 57.71 L 127.08 100.98 Z M 83.42 88.16 L 114.25 88.16 L 114.25 77.68 L 82.24 77.68 L 82.24 86.98 Q 82.24 87.46 82.59 87.81 Q 82.93 88.16 83.42 88.16 Z" />
</svg>